<svg width="1080" height="1080" viewBox="0 0 1080 1080" xmlns="http://www.w3.org/2000/svg">
  <defs>
    <linearGradient id="bg" x1="0" y1="0" x2="1" y2="1">
      <stop offset="0%" stop-color="#070707"/>
      <stop offset="100%" stop-color="#161616"/>
    </linearGradient>
    <pattern id="dotGrid" width="14" height="14" patternUnits="userSpaceOnUse">
      <circle cx="1.2" cy="1.2" r="1" fill="#ffffff" fill-opacity="0.1"/>
    </pattern>
  </defs>

  <rect width="1080" height="1080" fill="url(#bg)"/>
  <rect width="1080" height="1080" fill="url(#dotGrid)"/>

  <rect x="70" y="70" width="940" height="940" rx="36" fill="none" stroke="#2a2a2a"/>
  <rect x="98" y="98" width="884" height="884" rx="28" fill="none" stroke="#202020"/>

  <circle cx="888" cy="176" r="86" fill="#ff5f1f" fill-opacity="0.2" stroke="#ff5f1f" stroke-opacity="0.75"/>
  <circle cx="888" cy="176" r="52" fill="none" stroke="#ff5f1f" stroke-width="3"/>

  <g transform="translate(150,190)">
    <circle cx="0" cy="0" r="10" fill="#ff5f1f"/>
    <text x="26" y="8" fill="#f2f2f2" font-family="Space Grotesk, Arial, sans-serif" font-size="32" font-weight="700" letter-spacing="4">CMF WEB GUIDE</text>
  </g>

  <text x="150" y="430" fill="#ffffff" font-family="Sora, Arial, sans-serif" font-size="98" font-weight="700">CMF PHONE 2 PRO</text>
  <text x="150" y="522" fill="#ffffff" font-family="Sora, Arial, sans-serif" font-size="98" font-weight="700">WEB GUIDE</text>
  <text x="150" y="592" fill="#bbbbbb" font-family="Space Grotesk, Arial, sans-serif" font-size="44" font-weight="500">Official-style onboarding experience</text>

  <g transform="translate(150,660)">
    <rect x="0" y="0" width="540" height="84" rx="18" fill="#101010" stroke="#ff5f1f"/>
    <text x="30" y="54" fill="#ffb08d" font-family="Space Grotesk, Arial, sans-serif" font-size="36" font-weight="700">Clean and focused for CMF users</text>
  </g>

  <g transform="translate(742,668)">
    <rect x="0" y="0" width="198" height="220" rx="18" fill="#0f0f0f" stroke="#2c2c2c"/>
    <g fill="#f0f0f0" fill-opacity="0.55">
      <circle cx="34" cy="34" r="6"/>
      <circle cx="68" cy="34" r="6"/>
      <circle cx="102" cy="34" r="6"/>
      <circle cx="136" cy="34" r="6"/>
      <circle cx="34" cy="68" r="6"/>
      <circle cx="68" cy="68" r="6"/>
      <circle cx="102" cy="68" r="6"/>
      <circle cx="136" cy="68" r="6"/>
      <circle cx="34" cy="102" r="6"/>
      <circle cx="68" cy="102" r="6"/>
      <circle cx="102" cy="102" r="6"/>
      <circle cx="136" cy="102" r="6"/>
      <circle cx="34" cy="136" r="6"/>
      <circle cx="68" cy="136" r="6"/>
      <circle cx="102" cy="136" r="6"/>
      <circle cx="136" cy="136" r="6"/>
      <circle cx="34" cy="170" r="6"/>
      <circle cx="68" cy="170" r="6"/>
      <circle cx="102" cy="170" r="6"/>
      <circle cx="136" cy="170" r="6"/>
    </g>
    <rect x="24" y="194" width="150" height="14" rx="7" fill="#ff5f1f"/>
  </g>
</svg>